<svg width="24" height="18" viewBox="0 0 24 18" fill="none" xmlns="http://www.w3.org/2000/svg">
<path d="M22.8865 0.492997C22.7316 0.336783 22.5473 0.212792 22.3442 0.128178C22.1411 0.0435633 21.9232 0 21.7032 0C21.4832 0 21.2653 0.0435633 21.0622 0.128178C20.8591 0.212792 20.6748 0.336783 20.5199 0.492997L8.1032 12.9263L2.88654 7.693C2.72567 7.5376 2.53577 7.41541 2.32767 7.3334C2.11958 7.2514 1.89738 7.21118 1.67374 7.21505C1.45011 7.21892 1.22942 7.2668 1.02429 7.35595C0.819163 7.44511 0.633601 7.5738 0.478204 7.73466C0.322806 7.89553 0.200616 8.08544 0.11861 8.29353C0.0366032 8.50162 -0.00361425 8.72383 0.000254864 8.94746C0.00412397 9.17109 0.0520037 9.39178 0.141159 9.59691C0.230315 9.80204 0.359001 9.9876 0.519871 10.143L6.91987 16.543C7.07481 16.6992 7.25914 16.8232 7.46224 16.9078C7.66534 16.9924 7.88319 17.036 8.1032 17.036C8.32323 17.036 8.54107 16.9924 8.74417 16.9078C8.94726 16.8232 9.1316 16.6992 9.28654 16.543L22.8865 2.943C23.0557 2.78693 23.1907 2.59751 23.2831 2.38667C23.3754 2.17584 23.4231 1.94817 23.4231 1.718C23.4231 1.48783 23.3754 1.26015 23.2831 1.04932C23.1907 0.838487 23.0557 0.649068 22.8865 0.492997Z" fill="#FFBC57"/>
</svg>
