<svg width="24" height="24" viewBox="0 0 24 24" fill="none" xmlns="http://www.w3.org/2000/svg">
<path d="M17.9219 6.62C17.8204 6.37565 17.6262 6.18147 17.3819 6.08C17.2617 6.02876 17.1326 6.00158 17.0019 6H7.00189C6.73668 6 6.48232 6.10536 6.29479 6.29289C6.10725 6.48043 6.00189 6.73478 6.00189 7C6.00189 7.26522 6.10725 7.51957 6.29479 7.70711C6.48232 7.89464 6.73668 8 7.00189 8H14.5919L6.29189 16.29C6.19816 16.383 6.12377 16.4936 6.073 16.6154C6.02223 16.7373 5.99609 16.868 5.99609 17C5.99609 17.132 6.02223 17.2627 6.073 17.3846C6.12377 17.5064 6.19816 17.617 6.29189 17.71C6.38486 17.8037 6.49546 17.8781 6.61732 17.9289C6.73917 17.9797 6.86988 18.0058 7.00189 18.0058C7.1339 18.0058 7.26461 17.9797 7.38647 17.9289C7.50833 17.8781 7.61893 17.8037 7.71189 17.71L16.0019 9.41V17C16.0019 17.2652 16.1072 17.5196 16.2948 17.7071C16.4823 17.8946 16.7367 18 17.0019 18C17.2671 18 17.5215 17.8946 17.709 17.7071C17.8965 17.5196 18.0019 17.2652 18.0019 17V7C18.0003 6.86932 17.9731 6.74022 17.9219 6.62Z" fill="#FFBC57"/>
</svg>
