<svg width="24" height="24" viewBox="0 0 24 24" fill="none" xmlns="http://www.w3.org/2000/svg">
<path d="M19.07 4.93C18.1475 3.9749 17.0441 3.21308 15.824 2.68899C14.604 2.1649 13.2918 1.88904 11.964 1.8775C10.6362 1.86596 9.31941 2.11898 8.09045 2.62179C6.86148 3.1246 5.74497 3.86713 4.80604 4.80605C3.86711 5.74498 3.12458 6.8615 2.62177 8.09046C2.11896 9.31943 1.86595 10.6362 1.87748 11.964C1.88902 13.2918 2.16488 14.604 2.68897 15.824C3.21306 17.0441 3.97489 18.1475 4.92999 19.07C5.85246 20.0251 6.9559 20.7869 8.17594 21.311C9.39598 21.8351 10.7082 22.111 12.036 22.1225C13.3638 22.134 14.6806 21.881 15.9095 21.3782C17.1385 20.8754 18.255 20.1329 19.1939 19.194C20.1329 18.255 20.8754 17.1385 21.3782 15.9095C21.881 14.6806 22.134 13.3638 22.1225 12.036C22.111 10.7082 21.8351 9.396 21.311 8.17596C20.7869 6.95592 20.0251 5.85247 19.07 4.93ZM17.66 17.66C16.352 18.9694 14.6305 19.7848 12.7888 19.9673C10.947 20.1498 9.09899 19.6881 7.55951 18.6608C6.02003 17.6335 4.88435 16.1042 4.34596 14.3335C3.80758 12.5628 3.89979 10.6601 4.6069 8.94979C5.31401 7.23943 6.59226 5.82715 8.22388 4.95356C9.8555 4.07998 11.7395 3.79913 13.555 4.15888C15.3705 4.51862 17.005 5.49669 18.1802 6.92646C19.3554 8.35623 19.9985 10.1492 20 12C20.0036 13.0513 19.7986 14.0928 19.3969 15.0644C18.9953 16.0359 18.4049 16.9182 17.66 17.66Z" fill="#FFBC57"/>
<path d="M15.7098 8.29002C15.6169 8.19629 15.5063 8.12189 15.3844 8.07112C15.2626 8.02036 15.1319 7.99422 14.9998 7.99422C14.8678 7.99422 14.7371 8.02036 14.6153 8.07112C14.4934 8.12189 14.3828 8.19629 14.2898 8.29002L11.9998 10.59L9.70985 8.29002C9.52154 8.10171 9.26615 7.99592 8.99985 7.99592C8.73355 7.99592 8.47815 8.10171 8.28985 8.29002C8.10154 8.47832 7.99576 8.73371 7.99576 9.00002C7.99576 9.26632 8.10154 9.52171 8.28985 9.71002L10.5898 12L8.28985 14.29C8.19612 14.383 8.12172 14.4936 8.07096 14.6154C8.02019 14.7373 7.99405 14.868 7.99405 15C7.99405 15.132 8.02019 15.2627 8.07096 15.3846C8.12172 15.5065 8.19612 15.6171 8.28985 15.71C8.38281 15.8037 8.49341 15.8781 8.61527 15.9289C8.73713 15.9797 8.86784 16.0058 8.99985 16.0058C9.13186 16.0058 9.26256 15.9797 9.38442 15.9289C9.50628 15.8781 9.61688 15.8037 9.70985 15.71L11.9998 13.41L14.2898 15.71C14.3828 15.8037 14.4934 15.8781 14.6153 15.9289C14.7371 15.9797 14.8678 16.0058 14.9998 16.0058C15.1319 16.0058 15.2626 15.9797 15.3844 15.9289C15.5063 15.8781 15.6169 15.8037 15.7098 15.71C15.8036 15.6171 15.878 15.5065 15.9287 15.3846C15.9795 15.2627 16.0056 15.132 16.0056 15C16.0056 14.868 15.9795 14.7373 15.9287 14.6154C15.878 14.4936 15.8036 14.383 15.7098 14.29L13.4098 12L15.7098 9.71002C15.8036 9.61705 15.878 9.50645 15.9287 9.38459C15.9795 9.26273 16.0056 9.13203 16.0056 9.00002C16.0056 8.868 15.9795 8.7373 15.9287 8.61544C15.878 8.49358 15.8036 8.38298 15.7098 8.29002Z" fill="#2B2929"/>
</svg>
