<svg width="21" height="19" viewBox="0 0 21 19" fill="none" xmlns="http://www.w3.org/2000/svg">
<path d="M19.82 2.05006L13.82 0.0500547H13.75C13.7035 0.0453763 13.6566 0.0453763 13.61 0.0500547H13.38H13.25H13.18L7.5 2.00005L1.82 0.0500547C1.66962 0.000466276 1.50961 -0.0126999 1.35314 0.0116395C1.19667 0.035979 1.04822 0.0971284 0.920003 0.190055C0.790762 0.282071 0.685268 0.403518 0.612238 0.544362C0.539208 0.685206 0.500737 0.841405 0.500003 1.00005V15.0001C0.499462 15.2097 0.564822 15.4142 0.686845 15.5847C0.808868 15.7552 0.981382 15.883 1.18 15.9501L7.18 17.9501C7.38145 18.0157 7.59856 18.0157 7.8 17.9501L13.5 16.0501L19.18 18.0001C19.2862 18.0145 19.3938 18.0145 19.5 18.0001C19.7091 18.003 19.9132 17.9361 20.08 17.8101C20.2092 17.718 20.3147 17.5966 20.3878 17.4557C20.4608 17.3149 20.4993 17.1587 20.5 17.0001V3.00005C20.5005 2.79041 20.4352 2.5859 20.3132 2.41543C20.1911 2.24495 20.0186 2.11714 19.82 2.05006ZM6.5 15.6101L2.5 14.2801V2.39005L6.5 3.72005V15.6101ZM12.5 14.2801L8.5 15.6101V3.72005L12.5 2.39005V14.2801ZM18.5 15.6101L14.5 14.2801V2.39005L18.5 3.72005V15.6101Z" fill="white"/>
</svg>
