<svg width="32" height="32" viewBox="0 0 32 32" fill="none" xmlns="http://www.w3.org/2000/svg">
<path d="M10.0013 7.99998C9.60576 7.99998 9.21908 8.11728 8.89018 8.33704C8.56129 8.55681 8.30494 8.86916 8.15357 9.23461C8.00219 9.60007 7.96258 10.0022 8.03975 10.3902C8.11692 10.7781 8.30741 11.1345 8.58711 11.4142C8.86682 11.6939 9.22318 11.8844 9.61114 11.9616C9.99911 12.0387 10.4012 11.9991 10.7667 11.8477C11.1321 11.6964 11.4445 11.44 11.6643 11.1111C11.884 10.7822 12.0013 10.3955 12.0013 9.99998C12.0013 9.46955 11.7906 8.96084 11.4155 8.58577C11.0405 8.2107 10.5318 7.99998 10.0013 7.99998ZM28.1613 14.28L16.948 3.05331C16.8234 2.92974 16.6757 2.83197 16.5132 2.76562C16.3508 2.69927 16.1768 2.66563 16.0013 2.66665H4.00132C3.6477 2.66665 3.30856 2.80712 3.05852 3.05717C2.80847 3.30722 2.66799 3.64636 2.66799 3.99998V16C2.66698 16.1755 2.70061 16.3494 2.76696 16.5119C2.83332 16.6743 2.93108 16.8221 3.05466 16.9466L14.2813 28.16C15.0313 28.9091 16.048 29.3298 17.108 29.3298C18.168 29.3298 19.1847 28.9091 19.9347 28.16L28.1613 20C28.9104 19.25 29.3311 18.2333 29.3311 17.1733C29.3311 16.1133 28.9104 15.0967 28.1613 14.3466V14.28ZM26.2813 18.04L18.0413 26.2667C17.7915 26.515 17.4536 26.6544 17.1013 26.6544C16.7491 26.6544 16.4111 26.515 16.1613 26.2667L5.33466 15.4533V5.33331H15.4547L26.2813 16.16C26.4049 16.2846 26.5027 16.4323 26.569 16.5948C26.6354 16.7572 26.669 16.9312 26.668 17.1066C26.6665 17.4564 26.5277 17.7916 26.2813 18.04Z" fill="#FFBC57"/>
</svg>
