<svg width="24" height="24" viewBox="0 0 24 24" fill="none" xmlns="http://www.w3.org/2000/svg">
<path d="M12.7 11.5C12.3 11.9 11.7 11.9 11.3 11.5L8.3 8.49995C7.9 8.09995 7.9 7.49995 8.3 7.09995C8.7 6.69995 9.3 6.69995 9.7 7.09995L12 9.39995L14.3 7.09995C14.5 6.89995 14.7 6.79995 15 6.79995C15.3 6.79995 15.5 6.89995 15.7 7.09995C16.1 7.49995 16.1 8.09995 15.7 8.49995L12.7 11.5ZM9.7 12.5L12 14.8L14.3 12.5C14.5 12.3 14.7 12.2 15 12.2C15.3 12.2 15.5 12.3 15.7 12.5C16.1 12.9 16.1 13.5 15.7 13.9L12.7 16.9C12.3 17.3 11.7 17.3 11.3 16.9L8.3 13.9C7.9 13.5 7.9 12.9 8.3 12.5C8.7 12.2 9.3 12.2 9.7 12.5Z" fill="#FFBC57"/>
</svg>
