<svg width="25" height="24" viewBox="0 0 25 24" fill="none" xmlns="http://www.w3.org/2000/svg">
<path d="M7.49717 10.9999H15.0872L11.7872 7.70994C11.5989 7.52164 11.4931 7.26624 11.4931 6.99994C11.4931 6.73364 11.5989 6.47825 11.7872 6.28994C11.9755 6.10164 12.2309 5.99585 12.4972 5.99585C12.7635 5.99585 13.0189 6.10164 13.2072 6.28994L18.2072 11.2899C18.2982 11.385 18.3696 11.4972 18.4172 11.6199C18.5172 11.8634 18.5172 12.1365 18.4172 12.3799C18.3696 12.5027 18.2982 12.6148 18.2072 12.7099L13.2072 17.7099C13.1142 17.8037 13.0036 17.8781 12.8818 17.9288C12.7599 17.9796 12.6292 18.0057 12.4972 18.0057C12.3652 18.0057 12.2345 17.9796 12.1126 17.9288C11.9907 17.8781 11.8801 17.8037 11.7872 17.7099C11.6934 17.617 11.6191 17.5064 11.5683 17.3845C11.5175 17.2627 11.4914 17.132 11.4914 16.9999C11.4914 16.8679 11.5175 16.7372 11.5683 16.6154C11.6191 16.4935 11.6934 16.3829 11.7872 16.2899L15.0872 12.9999H7.49717C7.23196 12.9999 6.9776 12.8946 6.79007 12.707C6.60253 12.5195 6.49717 12.2652 6.49717 11.9999C6.49717 11.7347 6.60253 11.4804 6.79007 11.2928C6.9776 11.1053 7.23196 10.9999 7.49717 10.9999Z" fill="white"/>
</svg>
