<svg width="22" height="24" viewBox="0 0 22 24" fill="none" xmlns="http://www.w3.org/2000/svg">
<path d="M19.0698 4.93008C18.1474 3.97498 17.0439 3.21316 15.8239 2.68907C14.6038 2.16498 13.2916 1.88911 11.9638 1.87757C10.6361 1.86604 9.31926 2.11905 8.09029 2.62186C6.86133 3.12467 5.74481 3.8672 4.80589 4.80613C3.86696 5.74506 3.12443 6.86158 2.62162 8.09054C2.11881 9.3195 1.86579 10.6363 1.87733 11.9641C1.88887 13.2919 2.16473 14.6041 2.68882 15.8241C3.21291 17.0442 3.97473 18.1476 4.92984 19.0701C5.8523 20.0252 6.95575 20.787 8.17579 21.3111C9.39583 21.8352 10.708 22.111 12.0358 22.1226C13.3636 22.1341 14.6804 21.8811 15.9094 21.3783C17.1383 20.8755 18.2549 20.133 19.1938 19.194C20.1327 18.2551 20.8752 17.1386 21.3781 15.9096C21.8809 14.6807 22.1339 13.3639 22.1223 12.0361C22.1108 10.7083 21.8349 9.39607 21.3109 8.17603C20.7868 6.95599 20.0249 5.85255 19.0698 4.93008ZM17.6598 17.6601C16.3519 18.9695 14.6304 19.7849 12.7886 19.9674C10.9469 20.1499 9.09884 19.6881 7.55936 18.6609C6.01987 17.6336 4.88419 16.1043 4.34581 14.3336C3.80742 12.5628 3.89964 10.6602 4.60675 8.94986C5.31386 7.23951 6.59211 5.82723 8.22373 4.95364C9.85534 4.08006 11.7394 3.79921 13.5548 4.15895C15.3703 4.5187 17.0049 5.49677 18.1801 6.92654C19.3553 8.35631 19.9984 10.1493 19.9998 12.0001C20.0034 13.0514 19.7984 14.0929 19.3968 15.0645C18.9951 16.036 18.4047 16.9182 17.6598 17.6601Z" fill="#FFBC57"/>
<path d="M15.7099 8.28994C15.617 8.19621 15.5064 8.12182 15.3845 8.07105C15.2627 8.02028 15.132 7.99414 14.9999 7.99414C14.8679 7.99414 14.7372 8.02028 14.6154 8.07105C14.4935 8.12182 14.3829 8.19621 14.2899 8.28994L11.9999 10.5899L9.70994 8.28994C9.52164 8.10164 9.26624 7.99585 8.99994 7.99585C8.73364 7.99585 8.47824 8.10164 8.28994 8.28994C8.10164 8.47824 7.99585 8.73364 7.99585 8.99994C7.99585 9.26624 8.10164 9.52164 8.28994 9.70994L10.5899 11.9999L8.28994 14.2899C8.19621 14.3829 8.12182 14.4935 8.07105 14.6154C8.02028 14.7372 7.99414 14.8679 7.99414 14.9999C7.99414 15.132 8.02028 15.2627 8.07105 15.3845C8.12182 15.5064 8.19621 15.617 8.28994 15.7099C8.3829 15.8037 8.4935 15.8781 8.61536 15.9288C8.73722 15.9796 8.86793 16.0057 8.99994 16.0057C9.13195 16.0057 9.26266 15.9796 9.38452 15.9288C9.50638 15.8781 9.61698 15.8037 9.70994 15.7099L11.9999 13.4099L14.2899 15.7099C14.3829 15.8037 14.4935 15.8781 14.6154 15.9288C14.7372 15.9796 14.8679 16.0057 14.9999 16.0057C15.132 16.0057 15.2627 15.9796 15.3845 15.9288C15.5064 15.8781 15.617 15.8037 15.7099 15.7099C15.8037 15.617 15.8781 15.5064 15.9288 15.3845C15.9796 15.2627 16.0057 15.132 16.0057 14.9999C16.0057 14.8679 15.9796 14.7372 15.9288 14.6154C15.8781 14.4935 15.8037 14.3829 15.7099 14.2899L13.4099 11.9999L15.7099 9.70994C15.8037 9.61698 15.8781 9.50638 15.9288 9.38452C15.9796 9.26266 16.0057 9.13195 16.0057 8.99994C16.0057 8.86793 15.9796 8.73722 15.9288 8.61536C15.8781 8.4935 15.8037 8.3829 15.7099 8.28994Z" fill="#2B2929"/>
</svg>
