<svg width="144" height="36" viewBox="0 0 144 36" fill="none" xmlns="http://www.w3.org/2000/svg">
<path d="M14.4501 27.8813H11.3359V26.2789H19.175V27.8813H16.0608V35.7864H14.3427V27.8813H14.4501ZM26.9066 35.7864H21.2153V26.2789H26.6918V27.8813H22.826V30.2315H26.2623V31.8338H22.826V34.2908H26.7992V35.7864H26.9066ZM35.1752 26.2789H37.1081L33.8866 30.8724L37.2155 35.6795H35.2826L32.8127 32.1543L30.3429 35.6795H28.41L31.7389 30.8724L28.5174 26.2789H30.4503L32.8127 29.6973L35.1752 26.2789ZM46.9874 35.7864H45.2693V31.727H40.9739V35.7864H39.2558V26.2789H40.9739V30.1246H45.3767V26.2789H46.9874V35.7864ZM49.4573 31.0861C49.4573 29.6973 49.8868 28.5223 50.8532 27.5608C51.8197 26.5994 53.0009 26.1721 54.3969 26.1721C55.7929 26.1721 56.9741 26.5994 57.9406 27.5608C58.9071 28.5223 59.3366 29.6973 59.3366 31.0861C59.3366 32.4748 58.9071 33.6499 57.9406 34.6113C56.9741 35.5727 55.7929 36 54.3969 36C53.0009 36 51.8197 35.5727 50.8532 34.6113C49.8868 33.6499 49.4573 32.4748 49.4573 31.0861ZM51.1754 31.0861C51.1754 32.0475 51.4976 32.7953 52.0345 33.4362C52.5714 34.0772 53.4305 34.3976 54.2895 34.3976C55.256 34.3976 56.0077 34.0772 56.652 33.4362C57.1889 32.7953 57.5111 32.0475 57.5111 31.0861C57.5111 30.1246 57.1889 29.27 56.5446 28.7359C55.9003 28.095 55.1486 27.7745 54.2895 27.7745C53.3231 27.7745 52.5714 28.095 52.0345 28.7359C51.4976 29.27 51.1754 30.1246 51.1754 31.0861ZM68.7864 35.7864H67.1756V27.8813H64.3836L64.1689 29.6973C64.0615 30.7656 63.9541 31.727 63.7393 32.4748C63.5246 33.2226 63.4172 33.8635 63.2024 34.2908C62.9876 34.7181 62.7729 35.1454 62.4507 35.3591C62.1286 35.5727 61.9138 35.7864 61.5917 35.7864C61.2695 35.8932 60.9473 35.8932 60.5178 35.7864V34.184C60.7326 34.184 60.84 34.184 61.0547 34.184C61.1621 34.184 61.3769 33.9703 61.4843 33.7567C61.699 33.543 61.8064 33.2226 61.9138 32.7953C62.236 31.8338 62.4507 30.3383 62.6655 28.2018L62.7729 26.2789H68.7864V35.7864ZM71.2562 31.0861C71.2562 29.6973 71.6858 28.5223 72.6522 27.5608C73.6187 26.5994 74.7999 26.1721 76.1959 26.1721C77.5919 26.1721 78.7731 26.5994 79.7396 27.5608C80.706 28.5223 81.1355 29.6973 81.1355 31.0861C81.1355 32.4748 80.706 33.6499 79.7396 34.6113C78.7731 35.5727 77.5919 36 76.1959 36C74.7999 36 73.6187 35.5727 72.6522 34.6113C71.6858 33.6499 71.2562 32.4748 71.2562 31.0861ZM73.0817 31.0861C73.0817 32.0475 73.4039 32.7953 73.9408 33.4362C74.4777 34.0772 75.3368 34.3976 76.1959 34.3976C77.1623 34.3976 77.914 34.0772 78.5583 33.4362C79.0952 32.7953 79.4174 32.0475 79.4174 31.0861C79.4174 30.1246 79.0952 29.27 78.4509 28.7359C77.8066 28.095 77.055 27.7745 76.1959 27.7745C75.2294 27.7745 74.4777 28.095 73.9408 28.7359C73.2965 29.27 73.0817 30.1246 73.0817 31.0861ZM85.3235 35.7864H83.6054V26.2789H88.9746V27.8813H85.3235V35.7864ZM92.9478 35.7864H91.2296V26.2789H92.9478V35.7864ZM95.4176 24.6766C95.4176 24.4629 95.525 24.2493 95.6324 24.0356C95.8471 23.9288 96.0619 23.822 96.2767 23.822C96.4915 23.822 96.7062 23.9288 96.921 24.0356C97.1358 24.1424 97.1358 24.3561 97.1358 24.6766C97.1358 24.997 97.0284 25.2107 96.921 25.3175C96.8136 25.4243 96.5988 25.5312 96.2767 25.5312C96.0619 25.5312 95.8471 25.4243 95.6324 25.3175C95.525 25.1039 95.4176 24.8902 95.4176 24.6766ZM98.2096 35.7864H96.4915V26.2789H98.2096V35.7864ZM97.6727 24.6766C97.6727 24.4629 97.7801 24.2493 97.8875 24.0356C98.1022 23.9288 98.317 23.822 98.5318 23.822C98.7465 23.822 98.9613 23.9288 99.1761 24.0356C99.3908 24.2493 99.3908 24.3561 99.3908 24.6766C99.3908 24.997 99.2834 25.2107 99.1761 25.3175C99.0687 25.5312 98.8539 25.5312 98.5318 25.5312C98.2096 25.5312 97.9948 25.4243 97.8875 25.3175C97.7801 25.1039 97.6727 24.8902 97.6727 24.6766ZM111.633 33.6499L112.277 34.9318C111.955 35.2522 111.525 35.4659 110.988 35.6795C110.451 35.8932 109.807 36 109.27 36C107.767 36 106.586 35.5727 105.726 34.6113C104.867 33.7567 104.33 32.5816 104.33 31.0861C104.33 29.6973 104.76 28.5223 105.619 27.5608C106.478 26.5994 107.659 26.1721 109.163 26.1721C110.344 26.1721 111.31 26.4926 112.062 27.1335L111.31 28.4154C110.666 27.9881 109.914 27.7745 109.163 27.7745C108.304 27.7745 107.552 28.095 106.908 28.6291C106.371 29.27 106.049 30.0178 106.049 31.0861C106.049 32.0475 106.371 32.9021 106.908 33.543C107.552 34.184 108.304 34.5045 109.27 34.5045C110.237 34.3976 110.988 34.184 111.633 33.6499ZM122.156 35.7864H120.545V31.727H116.143V35.7864H114.425V26.2789H116.143V30.1246H120.545V26.2789H122.156V35.7864ZM131.499 26.2789H133.217L129.995 33.543C129.673 34.2908 129.244 34.8249 128.921 35.2522C128.492 35.5727 128.062 35.7864 127.418 35.7864C126.774 35.7864 126.452 35.6795 126.129 35.3591L126.666 33.9703C126.881 34.0772 127.096 34.184 127.418 34.184C127.848 34.184 128.17 33.9703 128.385 33.543L128.492 33.2226L124.304 26.2789H126.237L129.351 31.6202L131.499 26.2789Z" fill="#535353"/>
<path d="M9.40905 10.0415L18.6441 21.2582H12.7379L5.32845 11.9644V21.2582H0.710938V0.21365H5.32845V8.75964L12.4158 0.21365H18.1071L9.40905 10.0415ZM103.585 4.59347H110.028V21.2582H114.645V4.59347H121.088V0.21365H103.477V4.59347H103.585ZM31.9597 12.819L38.5101 21.2582H32.9261L27.4496 13.7804H25.7314V21.2582H21.1139V0.21365H21.6508C22.6173 0.21365 23.6911 0.21365 24.8723 0.21365C26.0536 0.21365 27.02 0.21365 27.7717 0.21365C34.2147 0.21365 35.6107 3.8457 35.6107 6.94362C35.6107 8.54599 35.1812 9.93472 34.3221 11.003C33.5704 11.7507 32.8188 12.3917 31.9597 12.819ZM26.2683 4.59347C26.0536 4.59347 25.9462 4.59347 25.7314 4.59347V9.40059H27.4496C28.416 9.40059 29.2751 9.18694 29.9194 8.65282C30.4563 8.22552 30.7785 7.58457 30.7785 6.8368C30.7785 5.76855 30.4563 4.48665 27.5569 4.48665C27.4495 4.48665 27.3422 4.48665 27.1274 4.48665C26.9126 4.59347 26.5905 4.59347 26.2683 4.59347ZM96.1753 0.21365L105.088 21.2582H100.149L98.1082 16.1306H90.2692L88.2289 21.2582H83.504L92.3095 0.21365H96.1753ZM94.135 6.62315L91.9873 11.7507H96.2827L94.135 6.62315ZM143.854 10.7893C143.854 13.8872 142.78 16.5579 140.74 18.5875C138.699 20.6172 136.015 21.6855 132.901 21.6855C129.786 21.6855 127.102 20.724 125.062 18.6944C123.021 16.6647 121.947 14.1009 121.947 10.8961C121.947 7.90505 123.021 5.23442 125.062 3.20475C127.102 1.17507 129.786 0.106825 132.901 0.106825C136.015 0.106825 138.699 1.06825 140.74 3.09792C142.78 4.91395 143.854 7.58457 143.854 10.7893ZM137.411 15.3828C138.592 14.1009 139.129 12.6053 139.129 10.6825C139.129 8.75964 138.592 7.2641 137.303 5.9822C136.122 4.80712 134.619 4.16617 132.901 4.16617C131.075 4.16617 129.679 4.80712 128.498 5.9822C127.317 7.15727 126.78 8.75964 126.78 10.6825C126.78 12.6053 127.317 14.1009 128.498 15.276C129.679 16.5579 131.075 17.092 132.901 17.092C134.834 17.1988 136.23 16.6647 137.411 15.3828ZM80.9268 0.21365L75.5576 14.1009L69.9736 0.21365H65.034L73.732 21.2582H77.1683L85.6517 0.21365H80.9268Z" fill="#535353"/>
<path d="M61.2292 2.13799C59.9374 0.855195 58.215 0.106899 56.3849 0.106899C54.5548 0.106899 52.8323 0.855195 51.5405 2.13799L51.2175 2.45869L50.7869 2.03109C49.4951 0.748296 47.7726 0 45.9425 0C44.1124 0 42.39 0.748296 41.0981 2.03109C39.8063 3.31388 39.0527 5.02427 39.0527 6.84156C39.0527 8.65885 39.8063 10.3692 41.0981 11.652L50.464 20.9523C50.6793 21.1661 50.8946 21.273 51.2175 21.273C51.5405 21.273 51.7558 21.1661 51.9711 20.9523L61.3369 11.652C62.6287 10.3692 63.3823 8.65885 63.3823 6.84156C63.3823 5.02427 62.6287 3.42078 61.2292 2.13799Z" fill="#00B5FF"/>
<mask id="mask0_4511_4142" style="mask-type:alpha" maskUnits="userSpaceOnUse" x="39" y="0" width="25" height="22">
<path d="M61.2292 2.13799C59.9374 0.855195 58.215 0.106899 56.3849 0.106899C54.5548 0.106899 52.8323 0.855195 51.5405 2.13799L51.2175 2.45869L50.7869 2.03109C49.4951 0.748296 47.7726 0 45.9425 0C44.1124 0 42.39 0.748296 41.0981 2.03109C39.8063 3.31388 39.0527 5.02427 39.0527 6.84156C39.0527 8.65885 39.8063 10.3692 41.0981 11.652L50.464 20.9523C50.6793 21.1661 50.8946 21.273 51.2175 21.273C51.5405 21.273 51.7558 21.1661 51.9711 20.9523L61.3369 11.652C62.6287 10.3692 63.3823 8.65885 63.3823 6.84156C63.3823 5.02427 62.6287 3.42078 61.2292 2.13799Z" fill="#00B5FF"/>
</mask>
<g mask="url(#mask0_4511_4142)">
<rect x="38.25" y="8.84804" width="25.7722" height="12.9295" fill="#FFBC00"/>
</g>
</svg>
