<svg width="40" height="40" viewBox="0 0 40 40" fill="none" xmlns="http://www.w3.org/2000/svg">
<g clip-path="url(#clip0_6639_5918)">
<path d="M20 0C8.95422 0 0 8.95422 0 20C0 31.0458 8.95422 40 20 40C31.0458 40 40 31.0458 40 20C40 8.95422 31.0458 0 20 0Z" fill="#40B3E0"/>
<path d="M29.7316 11.5045L26.1594 29.515C26.1594 29.515 25.6599 30.7641 24.286 30.1645L16.0425 23.8445L13.045 22.3958L7.99909 20.697C7.99909 20.697 7.22471 20.4223 7.14971 19.8228C7.07487 19.2233 8.02409 18.8986 8.02409 18.8986L28.0828 11.0298C28.0828 11.0298 29.7316 10.3055 29.7316 11.5045Z" fill="white"/>
<path d="M15.4088 29.3132C15.4088 29.3132 15.1682 29.2907 14.8684 28.3413C14.5687 27.3921 13.0449 22.3962 13.0449 22.3962L25.1601 14.7024C25.1601 14.7024 25.8596 14.2777 25.8346 14.7024C25.8346 14.7024 25.9595 14.7773 25.5848 15.127C25.2101 15.4768 16.0674 23.6951 16.0674 23.6951" fill="#D2E5F1"/>
<path d="M19.2036 26.268L15.9429 29.2409C15.9429 29.2409 15.6881 29.4343 15.4092 29.313L16.0336 23.791" fill="#B5CFE4"/>
</g>
<defs>
<clipPath id="clip0_6639_5918">
<rect width="40" height="40" fill="white"/>
</clipPath>
</defs>
</svg>
