<svg width="40" height="40" viewBox="0 0 40 40" fill="none" xmlns="http://www.w3.org/2000/svg">
<g clip-path="url(#clip0_6638_5912)">
<path d="M20 40C31.0457 40 40 31.0457 40 20C40 8.9543 31.0457 0 20 0C8.9543 0 0 8.9543 0 20C0 31.0457 8.9543 40 20 40Z" fill="#75B73B"/>
<g clip-path="url(#clip1_6638_5912)">
<path d="M19.44 8.47234C13.344 8.76234 8.53345 13.8392 8.55181 19.9419C8.55744 21.8007 9.00618 23.5552 9.7979 25.1056L8.58251 31.0052C8.51681 31.3244 8.80462 31.6038 9.12165 31.5287L14.9025 30.1591C16.3877 30.8991 18.0559 31.3262 19.8214 31.3532C26.0521 31.4484 31.2473 26.5012 31.4417 20.2728C31.6497 13.5964 26.1395 8.1532 19.44 8.47234ZM26.3379 26.2449C24.645 27.9378 22.3939 28.8702 19.9996 28.8702C18.5977 28.8702 17.2554 28.5556 16.0101 27.9354L15.2052 27.5343L11.6607 28.3739L12.4067 24.7523L12.0102 23.9755C11.3637 22.7094 11.0359 21.3405 11.0359 19.9065C11.0359 17.5121 11.9683 15.2612 13.6612 13.5682C15.339 11.8902 17.6267 10.9429 19.9998 10.9429C22.3938 10.9429 24.6449 11.8753 26.3378 13.5682C28.0307 15.2611 28.9631 17.5122 28.9631 19.9062C28.9633 22.2794 28.0158 24.567 26.3379 26.2449Z" fill="white"/>
<path d="M25.5551 22.3892L23.3376 21.7525C23.0462 21.669 22.7322 21.7518 22.5197 21.9682L21.9774 22.5205C21.7488 22.7536 21.4019 22.8284 21.0993 22.706C20.0503 22.2815 17.8436 20.3194 17.2804 19.3383C17.1176 19.0552 17.1446 18.7015 17.3443 18.4429L17.8176 17.8304C18.003 17.5906 18.0421 17.2682 17.9195 16.9908L16.9866 14.8808C16.7632 14.3755 16.1174 14.2283 15.6954 14.5852C15.0766 15.1087 14.3423 15.904 14.2532 16.7852C14.0958 18.3389 14.7622 20.2972 17.2815 22.6489C20.1922 25.3659 22.5232 25.7246 24.0411 25.357C24.9019 25.1486 25.5899 24.3129 26.0238 23.6284C26.32 23.1615 26.0859 22.5418 25.5551 22.3892Z" fill="white"/>
</g>
</g>
<defs>
<clipPath id="clip0_6638_5912">
<rect width="40" height="40" fill="white"/>
</clipPath>
<clipPath id="clip1_6638_5912">
<rect width="24" height="24" fill="white" transform="translate(8 8)"/>
</clipPath>
</defs>
</svg>
