<svg width="25" height="24" viewBox="0 0 25 24" fill="none" xmlns="http://www.w3.org/2000/svg">
<path d="M13.2103 9.1703L17.4503 13.4103C17.544 13.5033 17.6184 13.6139 17.6692 13.7357C17.72 13.8576 17.7461 13.9883 17.7461 14.1203C17.7461 14.2523 17.72 14.383 17.6692 14.5049C17.6184 14.6267 17.544 14.7373 17.4503 14.8303C17.2629 15.0166 17.0095 15.1211 16.7453 15.1211C16.4811 15.1211 16.2277 15.0166 16.0403 14.8303L12.5003 11.2903L8.9603 14.8303C8.77293 15.0166 8.51948 15.1211 8.25529 15.1211C7.99111 15.1211 7.73766 15.0166 7.55029 14.8303C7.45761 14.7369 7.38429 14.626 7.33452 14.5042C7.28476 14.3824 7.25953 14.2519 7.2603 14.1203C7.25953 13.9887 7.28476 13.8582 7.33452 13.7364C7.38429 13.6146 7.45761 13.5037 7.55029 13.4103L11.7903 9.1703C11.8833 9.07657 11.9939 9.00218 12.1157 8.95141C12.2376 8.90064 12.3683 8.8745 12.5003 8.8745C12.6323 8.8745 12.763 8.90064 12.8849 8.95141C13.0067 9.00218 13.1173 9.07657 13.2103 9.1703Z" fill="white"/>
</svg>
