<svg width="40" height="40" viewBox="0 0 40 40" fill="none" xmlns="http://www.w3.org/2000/svg">
<g id="viber" clip-path="url(#clip0_6639_5924)">
<path id="Vector" d="M20 40C31.0457 40 40 31.0457 40 20C40 8.9543 31.0457 0 20 0C8.9543 0 0 8.9543 0 20C0 31.0457 8.9543 40 20 40Z" fill="#6F3FAA"/>
<g id="Group">
<path id="Vector_2" d="M30.5805 14.0566L30.5739 14.0302C30.0396 11.8698 27.6304 9.55166 25.4179 9.06939L25.3929 9.06424C21.8143 8.38158 18.1858 8.38158 14.608 9.06424L14.5823 9.06939C12.3706 9.55166 9.96129 11.8699 9.42621 14.0302L9.42027 14.0566C8.75965 17.0735 8.75965 20.1332 9.42027 23.1502L9.42621 23.1766C9.93856 25.2447 12.1683 27.4564 14.2982 28.0646V30.4762C14.2982 31.3491 15.3619 31.7778 15.9668 31.1478L18.4101 28.6081C18.9401 28.6377 19.4704 28.6542 20.0004 28.6542C21.8018 28.6542 23.6039 28.4838 25.3929 28.1426L25.4178 28.1374C27.6303 27.6552 30.0395 25.3369 30.5739 23.1767L30.5804 23.1503C31.2411 20.1332 31.2411 17.0737 30.5805 14.0566ZM28.6468 22.7128C28.29 24.1222 26.4608 25.8744 25.0074 26.1981C23.1046 26.56 21.1868 26.7146 19.2708 26.6616C19.2327 26.6605 19.1961 26.6753 19.1696 26.7027C18.8976 26.9817 17.3856 28.5341 17.3856 28.5341L15.4881 30.4816C15.3493 30.6263 15.1056 30.5278 15.1056 30.3281V26.3331C15.1056 26.2671 15.0585 26.2111 14.9936 26.1983C14.9932 26.1981 14.9929 26.1981 14.9925 26.1981C13.5391 25.8743 11.7105 24.1221 11.3531 22.7127C10.7585 19.9856 10.7585 17.2211 11.3531 14.4941C11.7105 13.0846 13.5391 11.3324 14.9925 11.0087C18.3157 10.3767 21.685 10.3767 25.0075 11.0087C26.4616 11.3324 28.2901 13.0846 28.6469 14.4941C29.2421 17.2212 29.2421 19.9857 28.6468 22.7128Z" fill="white"/>
<path id="Vector_3" d="M23.1625 24.557C22.9391 24.4891 22.7262 24.4435 22.5283 24.3616C20.479 23.5113 18.593 22.4145 17.0992 20.7331C16.2497 19.777 15.5848 18.6976 15.0227 17.5552C14.7562 17.0135 14.5316 16.4506 14.3026 15.8913C14.0938 15.3813 14.4013 14.8544 14.7251 14.47C15.0289 14.1093 15.4199 13.8334 15.8434 13.6299C16.1738 13.4711 16.4998 13.5627 16.7412 13.8427C17.2629 14.4484 17.7423 15.0849 18.1302 15.787C18.3689 16.2188 18.3034 16.7466 17.8709 17.0404C17.7657 17.1118 17.6699 17.1957 17.572 17.2763C17.4861 17.347 17.4053 17.4184 17.3464 17.5141C17.2388 17.6892 17.2337 17.8959 17.3029 18.0863C17.8362 19.552 18.7352 20.6918 20.2106 21.3058C20.4467 21.404 20.6837 21.5183 20.9558 21.4866C21.4112 21.4334 21.5587 20.9338 21.878 20.6727C22.1899 20.4177 22.5887 20.4143 22.9247 20.627C23.2609 20.8398 23.5866 21.0681 23.9105 21.2989C24.2285 21.5255 24.545 21.747 24.8382 22.0053C25.1202 22.2537 25.2173 22.5795 25.0585 22.9164C24.7679 23.5337 24.3448 24.047 23.7348 24.3749C23.5625 24.4672 23.3567 24.4971 23.1625 24.557C23.3567 24.4971 22.9391 24.4891 23.1625 24.557Z" fill="white"/>
<path id="Vector_4" d="M20.0055 12.9239C22.6859 12.9991 24.8875 14.7779 25.3593 17.4279C25.4397 17.8795 25.4683 18.341 25.5041 18.7994C25.5192 18.9921 25.41 19.1752 25.202 19.1778C24.9872 19.1804 24.8905 19.0006 24.8765 18.808C24.8489 18.4266 24.8297 18.0434 24.7772 17.6652C24.4997 15.6684 22.9075 14.0165 20.92 13.662C20.6209 13.6087 20.315 13.5947 20.0119 13.5629C19.8204 13.5428 19.5697 13.5313 19.5272 13.2931C19.4917 13.0935 19.6601 12.9346 19.8502 12.9244C19.9017 12.9213 19.9536 12.9238 20.0055 12.9239C22.6861 12.9991 19.9536 12.9238 20.0055 12.9239Z" fill="white"/>
<path id="Vector_5" d="M24.079 18.2044C24.0746 18.2379 24.0723 18.3166 24.0526 18.3906C23.9815 18.6597 23.5734 18.6934 23.4796 18.4219C23.4517 18.3413 23.4475 18.2496 23.4474 18.1629C23.4465 17.5953 23.3231 17.0281 23.0368 16.5341C22.7425 16.0263 22.2928 15.5997 21.7655 15.3413C21.4466 15.1853 21.1018 15.0881 20.7523 15.0304C20.5996 15.0051 20.4452 14.9899 20.2917 14.9685C20.1057 14.9426 20.0063 14.8241 20.0152 14.6408C20.0234 14.4691 20.1489 14.3454 20.3361 14.3561C20.9512 14.391 21.5454 14.5241 22.0924 14.8136C23.2044 15.4026 23.8397 16.3321 24.0252 17.5735C24.0336 17.6298 24.047 17.6854 24.0513 17.7418C24.0618 17.881 24.0684 18.0205 24.079 18.2044C24.0746 18.2378 24.0684 18.0205 24.079 18.2044Z" fill="white"/>
<path id="Vector_6" d="M22.4118 18.1394C22.1876 18.1435 22.0676 18.0193 22.0444 17.8138C22.0284 17.6705 22.0156 17.5252 21.9814 17.3857C21.914 17.1109 21.768 16.8564 21.5369 16.688C21.4279 16.6086 21.3042 16.5507 21.1747 16.5132C21.0103 16.4656 20.8393 16.4787 20.6753 16.4386C20.4971 16.3949 20.3986 16.2505 20.4266 16.0834C20.4521 15.9312 20.6 15.8125 20.7664 15.8246C21.8056 15.8996 22.5483 16.4368 22.6543 17.6603C22.6619 17.7466 22.6707 17.8378 22.6515 17.9205C22.6186 18.0617 22.5139 18.1325 22.4118 18.1394C22.5139 18.1325 22.1875 18.1434 22.4118 18.1394Z" fill="white"/>
</g>
<path id="Vector_7" d="M23.1615 24.5567C22.938 24.4888 23.3557 24.4969 23.1615 24.5567V24.5567Z" fill="white"/>
<g id="Group_2">
<path id="Vector_8" d="M20.0123 12.9241C20.0101 12.9241 20.0079 12.9239 20.0056 12.9239C20.0034 12.9237 20.0062 12.9239 20.0123 12.9241Z" fill="white"/>
<path id="Vector_9" d="M20.0059 12.9238C20.0081 12.9238 20.0103 12.9241 20.0126 12.9241C20.1613 12.9294 22.5807 12.996 20.0059 12.9238Z" fill="white"/>
</g>
<g id="Group_3">
<path id="Vector_10" d="M24.0791 18.2047C24.0685 18.0208 24.0747 18.2381 24.0791 18.2047V18.2047Z" fill="white"/>
<path id="Vector_11" d="M22.4115 18.1396C22.415 18.1394 22.4184 18.1376 22.4217 18.1372C22.4123 18.1372 22.3977 18.1374 22.3828 18.138C22.3925 18.1382 22.4013 18.1397 22.4115 18.1396Z" fill="white"/>
<path id="Vector_12" d="M22.4115 18.1398C22.4015 18.14 22.3926 18.1385 22.3829 18.1382C22.3344 18.1395 22.2843 18.1421 22.4115 18.1398Z" fill="white"/>
<path id="Vector_13" d="M22.4214 18.1372C22.4179 18.1376 22.4145 18.1394 22.4111 18.1396C22.4374 18.1378 22.4351 18.1372 22.4214 18.1372Z" fill="white"/>
</g>
</g>
<defs>
<clipPath id="clip0_6639_5924">
<rect width="40" height="40" fill="white"/>
</clipPath>
</defs>
</svg>
